<svg width="170" height="53" viewBox="0 0 170 53" fill="none" xmlns="http://www.w3.org/2000/svg">
<path d="M59.1413 18.4385H57.6934V15.2734H59.1413V11.6489H63.0794V15.2734H65.8264V18.4385H63.0794V26.8497C63.0794 27.1286 63.1724 27.3611 63.3567 27.5471C63.5409 27.7312 63.7605 27.8242 64.0136 27.8242H65.8264V31.3129H64.0136C62.5527 31.3129 61.3746 30.8851 60.4813 30.0278C59.588 29.1705 59.1413 28.0213 59.1413 26.58V18.4385Z" fill="#181F46"/>
<path d="M85.3568 23.2808C85.3568 25.6797 84.4653 27.6956 82.6843 29.3321C80.9013 30.9686 78.7927 31.7868 76.3566 31.7868C73.9204 31.7868 71.8322 30.9686 70.0363 29.3321C68.2403 27.6956 67.3433 25.6779 67.3433 23.2808C67.3433 20.8837 68.2384 18.892 70.0307 17.2555C71.8211 15.619 73.9278 14.8008 76.351 14.8008C78.7741 14.8008 80.8809 15.619 82.6713 17.2555C84.4616 18.892 85.3587 20.9004 85.3587 23.2808H85.3568ZM81.2568 23.2808C81.2568 21.9288 80.7804 20.7703 79.8294 19.8051C78.8765 18.8399 77.7207 18.3583 76.3584 18.3583C74.9961 18.3583 73.8478 18.8437 72.8875 19.8125C71.9271 20.7814 71.447 21.9381 71.447 23.2808C71.447 24.6234 71.9271 25.8211 72.8875 26.7899C73.8478 27.7588 75.0054 28.2442 76.3584 28.2442C77.7114 28.2442 78.8895 27.7588 79.8368 26.7899C80.7841 25.8211 81.2587 24.6513 81.2587 23.2808H81.2568Z" fill="#181F46"/>
<path d="M98.297 15.2733H103.549L96.4154 22.7249L103.549 31.3128H98.6097L93.7913 25.4438L92.0716 27.3239V31.3128H88.1335V10.5405H92.0716V21.9011L98.297 15.2752V15.2733Z" fill="#181F46"/>
<path d="M121.252 23.2808C121.252 23.794 121.179 24.3761 121.036 25.0251H108.083C108.308 25.9457 108.84 26.7342 109.679 27.3925C110.519 28.0508 111.485 28.3799 112.575 28.3799C113.37 28.3799 114.079 28.1996 114.706 27.8388C115.334 27.478 115.823 27.0317 116.175 26.4998H120.452C119.884 28.1047 118.877 29.3879 117.433 30.3474C115.989 31.307 114.369 31.7868 112.573 31.7868C110.156 31.7868 108.099 30.9686 106.408 29.3321C104.716 27.6956 103.869 25.6779 103.869 23.2808C103.869 20.8837 104.72 18.8697 106.421 17.2425C108.122 15.6153 110.189 14.8008 112.626 14.8008C115.062 14.8008 117.04 15.6227 118.723 17.2685C120.405 18.9143 121.246 20.9172 121.246 23.2808H121.252ZM108.137 21.7243H117.042C116.834 20.7052 116.338 19.8516 115.553 19.1617C114.768 18.4717 113.794 18.1277 112.629 18.1277C111.464 18.1277 110.5 18.4717 109.679 19.1617C108.859 19.8516 108.343 20.7052 108.137 21.7243Z" fill="#181F46"/>
<path d="M124.012 31.3128V10.5405H127.95V31.3128H124.012Z" fill="#181F46"/>
<path d="M144.625 31.3129V28.7429H144.571C144.057 29.5909 143.347 30.3087 142.44 30.9001C141.534 31.4896 140.462 31.7853 139.226 31.7853C136.862 31.7853 134.852 30.9707 133.196 29.3435C131.54 27.7163 130.713 25.6949 130.713 23.2774C130.713 20.8598 131.542 18.8663 133.196 17.2391C134.852 15.6119 136.862 14.7974 139.226 14.7974C141.409 14.7974 143.192 15.7309 144.573 17.5961H144.627V15.2697H148.565V31.3092H144.627L144.625 31.3129ZM144.625 23.2811C144.625 21.9291 144.149 20.7706 143.198 19.8054C142.245 18.8402 141.089 18.3586 139.727 18.3586C138.364 18.3586 137.216 18.844 136.256 19.8128C135.295 20.7817 134.815 21.9384 134.815 23.2811C134.815 24.6237 135.295 25.8214 136.256 26.7902C137.216 27.7591 138.374 28.2445 139.727 28.2445C141.08 28.2445 142.258 27.7591 143.205 26.7902C144.152 25.8214 144.627 24.6516 144.627 23.2811H144.625Z" fill="#181F46"/>
<path d="M155.818 28.7428V31.3128H151.88V10.5405H155.818V17.5998H155.872C157.26 15.7327 159.043 14.801 161.219 14.801C163.582 14.801 165.592 15.6155 167.249 17.2427C168.905 18.8699 169.733 20.882 169.733 23.281C169.733 25.6799 168.905 27.72 167.249 29.3472C165.592 30.9743 163.582 31.7889 161.219 31.7889C159.983 31.7889 158.911 31.4932 158.005 30.9037C157.098 30.3123 156.387 29.5945 155.874 28.7465H155.82L155.818 28.7428ZM155.818 23.281C155.818 24.6515 156.294 25.8213 157.245 26.7901C158.196 27.759 159.354 28.2444 160.716 28.2444C162.078 28.2444 163.227 27.759 164.187 26.7901C165.147 25.8213 165.628 24.6515 165.628 23.281C165.628 21.9104 165.147 20.7705 164.187 19.8053C163.227 18.8401 162.069 18.3585 160.716 18.3585C159.363 18.3585 158.185 18.8401 157.238 19.8053C156.29 20.7705 155.816 21.929 155.816 23.281H155.818Z" fill="#181F46"/>
<path d="M45.9109 17.7578L37.6272 3.41989C36.4044 1.30361 34.1451 0 31.6996 0H15.1321C12.6866 0 10.4273 1.30361 9.20452 3.41989L0.917055 17.7578C-0.305685 19.8741 -0.305685 22.4813 0.917055 24.5976L9.2008 38.9355C10.4235 41.0518 12.6829 42.3554 15.1284 42.3554H31.6959C34.1413 42.3554 36.4007 41.0518 37.6235 38.9355L45.9072 24.5976C47.1299 22.4813 47.1299 19.8741 45.9072 17.7578H45.9109Z" fill="#181F46"/>
<path d="M33.0915 18.3435C33.3241 14.5331 33.272 9.49528 31.9749 10.9551C31.5338 11.5242 30.767 11.8849 29.6783 12.0374C28.5821 12.0188 28.1001 10.9291 28.2359 8.77188C28.1987 8.15262 28.502 7.93132 29.1497 8.10985C29.8234 8.20841 30.9401 9.98251 31.4202 9.52876C32.0716 8.93925 28.3494 6.09399 27.5808 6.80437C26.0863 8.61009 29.105 12.8817 23.4473 12.7738C23.4473 12.7738 23.4473 12.772 23.4473 12.7701C17.6965 12.917 20.7469 8.58963 19.2487 6.80065C18.48 6.08841 14.7578 8.93367 15.4074 9.52318C15.8894 9.97693 17.0023 8.20097 17.6798 8.10427C18.3256 7.92574 18.6308 8.14518 18.5917 8.7663C18.7276 10.9254 18.2474 12.0132 17.1512 12.0318C16.0606 11.8794 15.2938 11.5186 14.8528 10.9495C13.5556 9.48971 13.5016 14.5275 13.7361 18.3398C14.3745 22.4701 18.7276 20.5621 19.8331 23.186C20.9646 25.0196 16.2653 23.2195 16.1965 22.2469C13.4514 18.933 13.9148 23.3088 14.434 25.6017C14.756 28.2517 16.2076 31.0337 17.0582 33.9999C17.2554 35.0208 17.8175 35.575 18.7462 35.6587C19.7586 35.7015 20.8157 35.5508 21.9138 35.2087C22.3716 34.9799 22.42 34.4555 22.0589 33.6335C21.0297 32.1625 19.9484 30.6432 22.0943 30.4275C22.8034 30.4275 23.2296 30.4275 23.3803 30.4275C23.3803 30.4275 23.3803 30.4294 23.3803 30.4312C23.3803 30.4312 23.8307 30.4312 24.7315 30.4312C26.8792 30.6469 25.796 32.1663 24.7668 33.6354C24.4058 34.4574 24.4542 34.9836 24.912 35.2124C26.0119 35.5545 27.0653 35.7052 28.0796 35.6624C29.0083 35.5787 29.5703 35.0264 29.7676 34.0036C30.62 31.0375 32.0698 28.2554 32.3936 25.6054C32.9128 23.3125 33.3763 18.9367 30.6311 22.2525C30.5623 23.2232 25.863 25.0252 26.9946 23.1916C28.1001 20.5676 32.4513 22.4775 33.0915 18.3454V18.3435Z" fill="#FFFFFC"/>
<path d="M167.803 42.2549H140.289C139.076 42.2549 138.093 43.2373 138.093 44.4493V50.8056C138.093 52.0175 139.076 52.9999 140.289 52.9999H167.803C169.016 52.9999 169.999 52.0175 169.999 50.8056V44.4493C169.999 43.2373 169.016 42.2549 167.803 42.2549Z" fill="#535EFF"/>
<path d="M143.899 47.5867V49.6175H147.46V50.1233H143.393V44.5425H147.46V45.0483H143.899V47.079H146.946V47.5849H143.899V47.5867Z" fill="white"/>
<path d="M151.241 44.5425L153.4 50.1233H152.849L152.358 48.8513H149.611L149.12 50.1233H148.576L150.735 44.5425H151.241ZM150.981 45.2956L149.812 48.3529H152.164L150.996 45.2956H150.981Z" fill="white"/>
<path d="M158.898 46.3222C158.898 46.6941 158.792 47.0326 158.578 47.3375C158.364 47.6425 158.085 47.8601 157.737 47.9884L158.801 50.1233H158.243L157.216 48.1H155.213V50.1233H154.707V44.5425H157.126C157.612 44.5425 158.029 44.7154 158.377 45.0632C158.725 45.4109 158.898 45.8294 158.898 46.3203V46.3222ZM157.124 45.0502H155.211V47.5942H157.124C157.467 47.5942 157.763 47.4696 158.01 47.2222C158.254 46.9786 158.375 46.6792 158.375 46.3222C158.375 45.9651 158.254 45.6657 158.01 45.4221C157.763 45.1748 157.467 45.0502 157.124 45.0502Z" fill="white"/>
<path d="M164.191 44.5425H164.697V50.1233H164.191L160.899 45.4277L160.891 45.4351V50.1233H160.385V44.5425H160.891L164.184 49.2381L164.191 49.2307V44.5425Z" fill="white"/>
</svg>
